<svg xmlns="http://www.w3.org/2000/svg" viewBox="0 0 64 64">
  <defs>
    <linearGradient id="g" x1="0" y1="0" x2="1" y2="1">
      <stop offset="0" stop-color="#D4AF37"/>
      <stop offset="1" stop-color="#B8860B"/>
    </linearGradient>
  </defs>
  <circle cx="32" cy="32" r="28" fill="#0d0d0d" stroke="#D4AF37" stroke-width="2"/>
  <path d="M32 18c-7 0-12 9-12 16s5 13 12 13 12-6 12-13-5-16-12-16z" fill="url(#g)"/>
  <path d="M22 41c3-1 6-1 10-1s7 0 10 1c-3 4-7 6-10 6s-7-2-10-6z" fill="#0d0d0d"/>
  <path d="M22 42c2.5-1.2 5.5-1.7 10-1.7s7.5.5 10 1.7c-2.5 3.2-6 5-10 5s-7.5-1.8-10-5z" fill="url(#g)" opacity=".35"/>
</svg>
