<?xml version="1.0" encoding="UTF-8" standalone="no"?>
<!-- Created with Inkscape (http://www.inkscape.org/) -->

<svg
   width="210mm"
   height="297mm"
   viewBox="0 0 210 297"
   version="1.1"
   id="svg1"
   xml:space="preserve"
   inkscape:version="1.4.3 (0d15f75, 2025-12-25)"
   sodipodi:docname="logo-tjg.svg"
   xmlns:inkscape="http://www.inkscape.org/namespaces/inkscape"
   xmlns:sodipodi="http://sodipodi.sourceforge.net/DTD/sodipodi-0.dtd"
   xmlns="http://www.w3.org/2000/svg"
   xmlns:svg="http://www.w3.org/2000/svg"><sodipodi:namedview
     id="namedview1"
     pagecolor="#ffffff"
     bordercolor="#000000"
     borderopacity="0.25"
     inkscape:showpageshadow="2"
     inkscape:pageopacity="0.0"
     inkscape:pagecheckerboard="false"
     inkscape:deskcolor="#d1d1d1"
     inkscape:document-units="mm"
     inkscape:zoom="0.34431467"
     inkscape:cx="-466.14336"
     inkscape:cy="588.1248"
     inkscape:window-width="1920"
     inkscape:window-height="991"
     inkscape:window-x="-9"
     inkscape:window-y="-9"
     inkscape:window-maximized="1"
     inkscape:current-layer="layer1" /><defs
     id="defs1" /><g
     inkscape:label="Layer 1"
     inkscape:groupmode="layer"
     id="layer1"><g
       id="g23"
       transform="translate(63.302065)"><path
         id="path6"
         style="fill:#ffd42a;stroke-width:0.308368"
         d="m 28.419971,75.378345 -4.818828,18.182352 h 3.327446 l 3.977018,-14.964461 19.252055,0.02067 c 1.9e-4,5.5e-4 3.17e-4,0.0011 5.17e-4,0.0021 l 0.494026,-0.001 2.76624,0.0031 -0.0031,-0.0078 h 0.08217 C 53.161805,77.529546 52.762672,76.46392 52.301722,75.42177 H 52.11207 l -0.0026,-0.0062 z m 4.524271,5.875093 -3.215307,12.255066 12.003918,0.04806 c -1.80385,6.3439 -9.388874,12.490316 -18.295524,11.382766 l -0.01344,0.0662 H 20.56825 l -2.846338,10.73991 0.893485,0.14883 0.0036,5.1e-4 c 2.229291,0.53084 4.513946,0.79945 6.807336,0.79944 16.22991,2e-5 29.386857,-13.15693 29.386837,-29.386837 -3e-5,-2.00761 -0.205846,-4.004573 -0.610816,-5.959843 -0.0011,-0.005 -0.002,-0.01062 -0.0031,-0.01602 l -3.252515,-0.01189 c 0.0019,0.008 0.0038,0.01587 0.0057,0.02377 z m 18.53737,3.180685 c 0.1049,0.9517 0.15813,1.911019 0.15813,2.873209 -1.1e-4,14.477208 -11.736177,26.213278 -26.213387,26.213388 -1.250085,2e-5 -2.497314,-0.0891 -3.732072,-0.26665 l 1.337386,-5.03174 c 18.216779,1.09501 22.71418,-14.678225 22.797575,-17.914664 l -11.921753,0.03101 1.497066,-5.89008 z" /><path
         id="path4"
         style="fill:#0000ff;stroke-width:0.308368"
         d="M 25.426239,57.920691 A 29.386801,29.386801 0 0 0 -3.9605961,87.307531 29.386801,29.386801 0 0 0 12.468376,113.68318 l 0.676961,-2.55591 0.07803,0.0264 9.432501,-35.845359 -9.551356,0.0424 c 4.554375,-4.118 7.574915,-4.54223 10.884086,-5.01727 l 21.93717,-0.0124 -0.0584,-0.0532 3.48713,-0.0202 a 29.386801,29.386801 0 0 0 -23.92826,-12.3269 z m 0,3.17345 a 26.213594,26.213594 0 0 1 16.66462,5.97897 H 24.022709 C 13.64125,67.938941 8.3095713,74.910251 6.8387453,78.619691 H 18.317631 l -7.881689,30.191439 h -5.17e-4 A 26.213594,26.213594 0 0 1 -0.7871461,87.307531 26.213594,26.213594 0 0 1 25.426239,61.094141 Z" /><g
         id="g22"><g
           id="g20"
           transform="rotate(2.4314739,35.404233,32.139922)"
           style="fill:#000000;fill-opacity:1"><path
             style="opacity:1;fill:#000000;fill-opacity:1;stroke-width:0.264583"
             d="m 24.872325,99.062903 c -0.522721,0.3739 -0.204287,0.953237 0.305642,0.89995 l 2.818708,-1.13767 c 1.912514,-1.13558 0.63845,-2.998 0.101881,-3.26019 -2.127857,-1.03977 -3.737361,1.54857 -2.215912,2.80173 l 0.916929,-0.37357 c -1.002751,-0.75047 -0.462111,-1.69466 0.254703,-1.77442 1.276215,-0.142 1.197757,1.3594 0.568835,1.71499 z"
             id="path18"
             sodipodi:nodetypes="cccsccscc" /><path
             style="opacity:1;fill:#000000;fill-opacity:1;stroke-width:0.264583"
             d="m 28.27364,99.910283 c 0.52134,-0.37583 0.200758,-0.954 -0.308967,-0.89882 l -2.814478,1.148087 c -1.908297,1.14264 -0.627345,3.00035 -0.08981,3.26055 2.131681,1.03189 3.731595,-1.56239 2.205521,-2.80991 l -0.915538,0.37695 c 1.005525,0.74677 0.468375,1.69295 -0.248136,1.77536 -1.275683,0.14672 -1.202778,-1.35496 -0.575175,-1.71287 z"
             id="path19"
             sodipodi:nodetypes="cccsccscc" /></g></g></g></g></svg>
